<svg xmlns="http://www.w3.org/2000/svg" viewBox="0 0 25.04 37.56"><defs><style>.cls-1{fill:#69b0e2;}.cls-2{fill:#383837;}</style></defs><title>cocina</title><g id="Capa_2" data-name="Capa 2"><g id="Capa_1-2" data-name="Capa 1"><polygon class="cls-1" points="7.63 11.32 7.2 7.54 4.69 5.91 4.86 2.73 6.26 1.76 8.76 1.26 10.51 2.67 12.31 0.93 14.65 0.73 16.42 1.26 17.79 2.47 18.29 5.04 19.82 3.87 21.63 4.1 24.06 5.28 23.79 7.31 22.7 9.28 21.43 10.15 19.59 10.15 18.78 13.56 7.63 11.32"/><path class="cls-2" d="M0,33.17v3.76a.63.63,0,0,0,.63.63H24.41a.63.63,0,0,0,.63-.63V33.17a6.89,6.89,0,0,0-6-6.82.63.63,0,0,0-.27-.06l-.12,0-.5,0h-.64a6.21,6.21,0,0,0,1.26-3.76,1.88,1.88,0,1,0,0-3.76V16.34l.6-3,1.07-2.68h.2a3.76,3.76,0,1,0-2-6.94A4.69,4.69,0,0,0,10.31,1.9,3.76,3.76,0,1,0,6.88,8.09v3.12l-.61,3.07a.37.37,0,0,0,0,.07s0,0,0,.06v4.38a1.88,1.88,0,1,0,0,3.76,6.22,6.22,0,0,0,1.26,3.76H6.88A6.89,6.89,0,0,0,0,33.17M6.26,21.28a.63.63,0,1,1,0-1.25Zm12.62,9.38A.62.62,0,0,0,19.4,30V27.69a5.64,5.64,0,0,1,4.38,5.49V36.3h-2.5V34.43a.63.63,0,1,0-1.25,0V36.3H7.51V32.46Zm-1.35-12.6a3.79,3.79,0,0,1-2-1.58l2,.33Zm.13-2.5-10-1.67L8,12l10,1.67Zm-4.15.58c-1,1.45-4.18,1.91-6,2v-3Zm5.89,4.52a.63.63,0,0,1-.63.63V20a.63.63,0,0,1,.63.63M5,4.38a2.5,2.5,0,0,1,4.77-1,.65.65,0,0,0,.58.36.62.62,0,0,0,.57-.38,3.44,3.44,0,0,1,6.6,1.36c0,.1,0,.2,0,.3a.63.63,0,0,0,1.13.42,2.48,2.48,0,0,1,2-1,2.5,2.5,0,1,1,0,5H20a.63.63,0,0,0-.58.39l-1.06,2.66L8.14,10.74V7.51a.63.63,0,0,0-.63-.63A2.5,2.5,0,0,1,5,4.38m2.5,18.15V19.39C9.08,19.32,12.9,19,14.43,17a4.93,4.93,0,0,0,3.1,2.32v3.19a5,5,0,0,1-10,0m1.25,5h0a6.21,6.21,0,0,0,7.49,0h1.89v2L6.79,31.31a.62.62,0,0,0-.53.62V36.3H4.38V33.8a.63.63,0,0,0-1.25,0v2.5H1.25V33.17a5.64,5.64,0,0,1,5.63-5.63Z"/><path class="cls-2" d="M10,21.91a.62.62,0,0,0,.63-.63v-.63a.63.63,0,1,0-1.25,0v.63a.63.63,0,0,0,.63.63"/><path class="cls-2" d="M15,21.91a.63.63,0,0,0,.63-.63v-.63a.63.63,0,1,0-1.25,0v.63a.63.63,0,0,0,.63.63"/><path class="cls-2" d="M9.51,24a.63.63,0,0,0,.13.88,4.82,4.82,0,0,0,5.76,0,.63.63,0,0,0-.75-1,3.57,3.57,0,0,1-4.26,0,.63.63,0,0,0-.88.13"/><path class="cls-2" d="M9.7,35.05a.94.94,0,1,0-.94-.94.94.94,0,0,0,.94.94m0-1.25a.31.31,0,1,1-.31.31.31.31,0,0,1,.31-.31"/></g></g></svg>