<svg xmlns="http://www.w3.org/2000/svg" viewBox="0 0 35.17 35.98"><defs><style>.cls-1{fill:#c06d22;}.cls-2{fill:#383837;}</style></defs><title>cuidado_ninos</title><g id="Capa_2" data-name="Capa 2"><g id="Capa_1-2" data-name="Capa 1"><polygon class="cls-1" points="4.87 1.45 3.38 0.72 2.05 1.72 2.03 3.17 5.11 6.33 7.92 3.3 7.75 1.45 6.29 0.59 4.87 1.45"/><path class="cls-2" d="M24.85,30.79a.73.73,0,0,0-.51-.21h-2.1A9.7,9.7,0,0,1,18.84,30l1.25-.84a2.28,2.28,0,0,0,.6-3.2,2.29,2.29,0,0,0-1.87-1h0l2.89-2.89a2.25,2.25,0,0,0-.73-3.67,2.25,2.25,0,0,0-3.08-3.07,2.25,2.25,0,0,0-3.67-.73l-1,1A2.25,2.25,0,0,0,9.53,15l-.46.46L7.2,13.56a1.39,1.39,0,0,1,1.86-2.06l1.81,1.81a.73.73,0,0,0,1-1L8.77,9.16a1.39,1.39,0,0,1,2-2l5.47,5.48a.73.73,0,1,0,1-1L13.08,7.47a1.39,1.39,0,0,1,2.07-1.86l1.52,1.52a.72.72,0,1,0,1-1L16.17,4.59a2.84,2.84,0,0,0-4.75,1.28,2.84,2.84,0,0,0-3.67.3,2.85,2.85,0,0,0-.3,3.67A2.84,2.84,0,0,0,6,14.39a2.84,2.84,0,0,0-1.25,4.75l.32.32A8.12,8.12,0,0,0,3.19,24.7v1.2l-3,3a.73.73,0,1,0,1,1l3.19-3.19a.72.72,0,0,0,.21-.51V24.7a6.69,6.69,0,0,1,2-4.77l3.6-3.6.35-.35A.8.8,0,0,1,11.74,17l-1,1a.73.73,0,0,0,0,1h0a.73.73,0,0,0,1,0l3.42-3.42a.8.8,0,0,1,1.13,0,.8.8,0,0,1,.06,1.06l-3.48,3.49a.72.72,0,1,0,1,1l4.48-4.49a.8.8,0,0,1,1.13,0,.8.8,0,0,1,0,1.13L15.08,22.3a.73.73,0,0,0,1,1l3.49-3.48A.8.8,0,0,1,20.65,21l-4.9,4.9a.95.95,0,0,0,1.16,1.48l1.48-.9a.83.83,0,0,1,.89,1.4l-3.42,2.29a6.7,6.7,0,0,1-3.75,1.14H9.78a.72.72,0,0,0-.51.21L6.08,34.75a.72.72,0,1,0,1,1l3-3h2a8.16,8.16,0,0,0,4.56-1.39l.73-.49A11.17,11.17,0,0,0,22.23,32H24l3.68,3.68a.72.72,0,1,0,1-1ZM5.77,16.14A1.4,1.4,0,0,1,7.64,16l.4.4-.47.47h0L6.07,18.41l-.3-.3a1.39,1.39,0,0,1,0-2"/><path class="cls-2" d="M33.23,22.83V19.9a11.07,11.07,0,0,0-1.88-6.2L28.16,8.94a2.89,2.89,0,0,0-4.06-.76A2.9,2.9,0,0,0,23,11.42l-5.92-5.9a.73.73,0,1,0-1,1l8.1,8.08a1,1,0,0,0,1.62-1.27L24.53,11.3a1.44,1.44,0,0,1,.4-1.92,1.44,1.44,0,0,1,2,.38l3.19,4.76a9.61,9.61,0,0,1,1.64,5.39v3.23a.72.72,0,0,0,.21.51l1.94,1.95a.73.73,0,0,0,1-1Z"/><path class="cls-2" d="M26.14,19.08a.72.72,0,0,0-1-1l-.32.32a3.48,3.48,0,0,0,0,4.91.73.73,0,1,0,1-1,2,2,0,0,1,0-2.86Z"/><path class="cls-2" d="M4.43,6.92a.73.73,0,0,0,.88,0A18.66,18.66,0,0,0,6.93,5.5C8.11,4.32,8.69,3.36,8.69,2.56A2.54,2.54,0,0,0,6.17,0a2.49,2.49,0,0,0-1.3.37A2.49,2.49,0,0,0,3.57,0,2.54,2.54,0,0,0,1.05,2.56c0,.8.58,1.76,1.76,2.94A18.59,18.59,0,0,0,4.43,6.92M3.57,1.45a1,1,0,0,1,.77.34.73.73,0,0,0,1.07,0,1,1,0,0,1,.77-.34A1.09,1.09,0,0,1,7.24,2.56c0,.57-1.16,1.85-2.37,2.86C3.66,4.41,2.5,3.13,2.5,2.56A1.09,1.09,0,0,1,3.57,1.45"/><polygon class="cls-1" points="31.25 13.95 29.77 13.21 28.44 14.22 28.41 15.67 31.5 18.83 34.3 15.79 34.14 13.95 32.67 13.09 31.25 13.95"/><path class="cls-2" d="M32.66,12.52a2.49,2.49,0,0,0-1.3.37,2.49,2.49,0,0,0-1.3-.37,2.54,2.54,0,0,0-2.52,2.56c0,.8.57,1.76,1.76,2.94a18.12,18.12,0,0,0,1.62,1.42.72.72,0,0,0,.88,0A18.4,18.4,0,0,0,33.42,18c1.18-1.18,1.76-2.14,1.76-2.94a2.54,2.54,0,0,0-2.52-2.56m-1.3,5.42c-1.21-1-2.37-2.29-2.37-2.86A1.09,1.09,0,0,1,30.06,14a1,1,0,0,1,.77.34.73.73,0,0,0,1.07,0,1,1,0,0,1,.77-.34,1.09,1.09,0,0,1,1.07,1.11c0,.57-1.15,1.85-2.37,2.86"/></g></g></svg>