<svg xmlns="http://www.w3.org/2000/svg" viewBox="0 0 37.56 37.56"><defs><style>.cls-1{fill:#69b0e2;}.cls-2{fill:#383837;}</style></defs><title>lavado_planchado</title><g id="Capa_2" data-name="Capa 2"><g id="Capa_1-2" data-name="Capa 1"><path class="cls-1" d="M30.63,22.41s-2.14,9.66-10.89,6.88l-1.57-1-.67-1.5L15.36,26,14.19,22.8l1.56-.39,1.51-1.21,1.34.34,1,.87,1.4-.27.87-.7,1.2.07,1,.9,1.45-.27,1.4-.8,1.37.23.67.67Z"/><path class="cls-2" d="M37,0H6.66a.61.61,0,0,0-.61.61V23.08a3,3,0,0,0-3.63,3h0a3,3,0,0,0-1.15,1.8H.61a.61.61,0,0,0-.61.61v2.42a.61.61,0,0,0,.61.61h.61v1.82a4.24,4.24,0,0,0,4.24,4.24H37a.61.61,0,0,0,.61-.61V.61A.61.61,0,0,0,37,0m-.61,7.27H7.27V1.21H36.35Zm-33,19.62a.61.61,0,0,0,.3-.61v-.07a1.18,1.18,0,0,1,0-.17,1.82,1.82,0,0,1,1.82-1.82A1.8,1.8,0,0,1,7,25.12a.61.61,0,0,0,.91.15,1.79,1.79,0,0,1,1.17-.44,1.82,1.82,0,0,1,1.58.93.61.61,0,0,0,.63.3,1.23,1.23,0,0,1,1.4,1,.61.61,0,0,0,1.06.28,1.8,1.8,0,0,1,3.09.55H2.54a1.83,1.83,0,0,1,.81-1m8.15-5.69a10.34,10.34,0,1,1,7.79,10,.58.58,0,0,0,.08-.29V30a9.09,9.09,0,1,0-5.46-4.25,3,3,0,0,0-.39.21,2.42,2.42,0,0,0-1.3-1,10.24,10.24,0,0,1-.71-3.75m3.67,4.24a7.81,7.81,0,0,1-1-2.43h.4A2.05,2.05,0,0,0,16,22.41l.36-.35a.88.88,0,0,1,1.21,0l.36.35a2.12,2.12,0,0,0,2.92,0l.35-.35a.88.88,0,0,1,1.21,0l.35.35a2.12,2.12,0,0,0,2.92,0l.36-.35a.88.88,0,0,1,1.21,0l.35.35a2.06,2.06,0,0,0,1.46.61h.39a7.85,7.85,0,0,1-10.08,5.67v-.22a.61.61,0,0,0-.61-.61h-.67a3,3,0,0,0-2.93-2.42M13.93,21.2a7.88,7.88,0,0,1,15.75,0c0,.21,0,.41,0,.61h-.57a.86.86,0,0,1-.61-.25l-.35-.36a2.12,2.12,0,0,0-2.93,0l-.35.36a.88.88,0,0,1-1.21,0l-.35-.36a2.12,2.12,0,0,0-2.92,0l-.35.36a.88.88,0,0,1-1.21,0l-.35-.36a2.12,2.12,0,0,0-2.93,0l-.35.36a.85.85,0,0,1-.61.25H14q0-.3,0-.61M1.21,29.08h17v1.21h-17Zm12.12,7.27H5.45a3,3,0,0,1-3-3V31.5H17v1.82a3,3,0,0,1-3,3Zm3.57,0a4.22,4.22,0,0,0,1.28-3v-1.2a11.57,11.57,0,1,0-7.5-8,3,3,0,0,0-3-.1,3.05,3.05,0,0,0-.39-.35V8.48H36.35V36.34Z"/><path class="cls-2" d="M10.3,6.06A1.82,1.82,0,1,0,8.48,4.24,1.82,1.82,0,0,0,10.3,6.06m0-2.42a.61.61,0,1,1-.61.61.61.61,0,0,1,.61-.61"/><path class="cls-2" d="M15.14,6.06a1.82,1.82,0,1,0-1.82-1.82,1.82,1.82,0,0,0,1.82,1.82m0-2.42a.61.61,0,1,1-.61.61.61.61,0,0,1,.61-.61"/><path class="cls-2" d="M20,6.06a1.82,1.82,0,1,0-1.82-1.82A1.82,1.82,0,0,0,20,6.06m0-2.42a.61.61,0,1,1-.61.61A.61.61,0,0,1,20,3.63"/><rect class="cls-2" x="33.92" y="4.85" width="1.21" height="1.21"/><rect class="cls-2" x="33.92" y="2.42" width="1.21" height="1.21"/><rect class="cls-2" x="31.5" y="4.85" width="1.21" height="1.21"/><rect class="cls-2" x="31.5" y="2.42" width="1.21" height="1.21"/><rect class="cls-2" x="29.08" y="4.85" width="1.21" height="1.21"/><rect class="cls-2" x="29.08" y="2.42" width="1.21" height="1.21"/><rect class="cls-2" x="26.65" y="4.85" width="1.21" height="1.21"/><rect class="cls-2" x="26.65" y="2.42" width="1.21" height="1.21"/></g></g></svg>