<svg xmlns="http://www.w3.org/2000/svg" viewBox="0 0 37.22 39.88"><defs><style>.cls-1{fill:#c06d22;}.cls-2{fill:#383837;}</style></defs><title>limpieza_domestica</title><g id="Capa_2" data-name="Capa 2"><g id="Capa_1-2" data-name="Capa 1"><path class="cls-1" d="M7.31,14.66c.17.3,0,15.33,0,15.33L8,31.62l2,.29H16l2-1.5V23.74l3.23,1.17,1.18-.78V22.41l-4.68-2.3L18,14.66Z"/><path class="cls-2" d="M.67,17.95H2.07L4.66,38a.66.66,0,0,0,.66.58H21a4,4,0,0,0,3,1.33h1a4.71,4.71,0,0,0,2.1-.5,3.4,3.4,0,0,1,3,0,4.71,4.71,0,0,0,2.1.5h1a4,4,0,0,0,4-4v-4a4,4,0,0,0-4-4h-1a4.7,4.7,0,0,0-2.1.5,3.39,3.39,0,0,1-3,0,4.68,4.68,0,0,0-1.2-.4l1.3-10.07h1.41a.66.66,0,0,0,.67-.66V14.62a.66.66,0,0,0-.67-.66H25.92V12a.67.67,0,0,0-.19-.47L22.6,8.37V6.3l1-.8,1.72,3.44,1.19-.59-1.85-3.7L25.49,4h2.43a.67.67,0,0,0,.67-.66V.67A.66.66,0,0,0,27.92,0H21.27a6,6,0,0,0-6,6,.66.66,0,0,0,.66.67h1.33V8.37l-1.8,1.8a.66.66,0,0,0-.19.47V14H14V8.64a.65.65,0,0,0,0-.24l0-.08-.06-.1L11.3,5.08V.67A.66.66,0,0,0,10.64,0h-4A.66.66,0,0,0,6,.67V5.08L3.47,8.23l-.06.1,0,.08a.66.66,0,0,0,0,.24V14H.67a.66.66,0,0,0-.67.66v2.66a.66.66,0,0,0,.67.66m32.57,20.6h-1a3.4,3.4,0,0,1-1.51-.36,4.73,4.73,0,0,0-4.21,0,3.4,3.4,0,0,1-1.51.36h-1a2.66,2.66,0,0,1-2.66-2.66v-1a4,4,0,0,0,2.66,1h1a4.74,4.74,0,0,0,2.1-.5,3.39,3.39,0,0,1,3,0,4.74,4.74,0,0,0,2.1.5h1a4,4,0,0,0,2.66-1v1a2.66,2.66,0,0,1-2.66,2.66M30.68,29.6a3.39,3.39,0,0,1,1.51-.36h1a2.66,2.66,0,0,1,0,5.32h-1a3.4,3.4,0,0,1-1.51-.36,4.73,4.73,0,0,0-4.21,0,3.4,3.4,0,0,1-1.51.36h-1a2.66,2.66,0,0,1,0-5.32h1a3.38,3.38,0,0,1,1.51.36,4.74,4.74,0,0,0,4.21,0m-6.14-1.68h-.62a4,4,0,0,0-4,4v4a4,4,0,0,0,.23,1.33H5.9L3.42,17.95H6.65v12a2.66,2.66,0,0,0,2.66,2.66H16a2.66,2.66,0,0,0,2.66-2.66V24.34l1.74.87a2.12,2.12,0,0,0,2.84-1h0a2.15,2.15,0,0,0,.12-1.65,2.13,2.13,0,0,0-1.08-1.24l-3.62-1.81V17.95h7.22ZM16,15.29h1.33v4.65a.67.67,0,0,0,.37.6l4,2A.8.8,0,0,1,22,23a.86.86,0,0,1-.07.67.78.78,0,0,1-1,.35h0l-2.7-1.35a.66.66,0,0,0-1,.6v6.65A1.33,1.33,0,0,1,16,31.24v-6H14.62v6H13.29v-6H12v6H10.64v-6H9.31v6A1.33,1.33,0,0,1,8,29.91V15.29Zm12,1.33H18.61V15.29h9.31Zm-.66-14H25.92V1.33h1.33Zm-6-1.33h3.32V3L21.7,5.32h-5a4.66,4.66,0,0,1,4.61-4m0,6.65H18.61V6.65h2.66Zm-4.65,2.93,1.6-1.61h3.44l2.93,2.93V14h-8ZM7,6h3.35l1.6,2H5.37Zm.35-4.65H10V4.65H7.31Zm-2.66,8h8V14h-8Zm-3.32,6H6.65v1.33H1.33Z"/><rect class="cls-2" x="32.57" y="30.58" width="1.33" height="1.33"/><rect class="cls-2" x="25.92" y="30.58" width="1.33" height="1.33"/><rect class="cls-2" x="23.26" y="31.24" width="1.33" height="1.33"/><rect class="cls-2" x="29.91" y="31.24" width="1.33" height="1.33"/></g></g></svg>